{
    "asset" : {
        "generator" : "Khronos glTF Blender I/O v1.8.19",
        "version" : "2.0"
    },
    "scene" : 0,
    "scenes" : [
        {
            "name" : "Scene",
            "nodes" : [
                9
            ]
        }
    ],
    "nodes" : [
        {
            "name" : "PhalanxPrima3",
            "rotation" : [
                -0.22256197035312653,
                0.9715754985809326,
                -0.024919476360082626,
                0.07672208547592163
            ],
            "scale" : [
                1,
                1.000000238418579,
                1
            ],
            "translation" : [
                -0.026047401130199432,
                0.3427709639072418,
                0.20540806651115417
            ]
        },
        {
            "name" : "PhalanxPrima2",
            "rotation" : [
                -0.2225620299577713,
                0.9715755581855774,
                -0.02491948939859867,
                0.07672207802534103
            ],
            "scale" : [
                0.9999999403953552,
                0.9999997019767761,
                1
            ],
            "translation" : [
                0.00020015137852169573,
                0.35453712940216064,
                0.048483170568943024
            ]
        },
        {
            "name" : "PhalanxPrima1",
            "rotation" : [
                -0.2225620001554489,
                0.9715754985809326,
                -0.024919485673308372,
                0.07672208547592163
            ],
            "scale" : [
                0.9999999403953552,
                1.000000238418579,
                1
            ],
            "translation" : [
                0.023213330656290054,
                0.34277066588401794,
                -0.09702777862548828
            ]
        },
        {
            "name" : "PhalanxPrima0",
            "rotation" : [
                -0.2225620001554489,
                0.9715754985809326,
                -0.02491948753595352,
                0.07672208547592163
            ],
            "scale" : [
                0.9999999403953552,
                1.000000238418579,
                1
            ],
            "translation" : [
                0.04879079386591911,
                0.3427705466747284,
                -0.2540617883205414
            ]
        },
        {
            "children" : [
                0,
                1,
                2,
                3
            ],
            "name" : "Calcaneus",
            "rotation" : [
                -0.05524003133177757,
                0.05357271805405617,
                0.29255032539367676,
                0.9531490206718445
            ],
            "scale" : [
                0.9999998211860657,
                1.0000001192092896,
                0.9999999403953552
            ],
            "translation" : [
                -5.777566514097998e-08,
                2.015171527862549,
                1.673730665174844e-08
            ]
        },
        {
            "children" : [
                4
            ],
            "name" : "Tibia",
            "rotation" : [
                0.0022714154329150915,
                -5.015982296185939e-08,
                -0.1499025821685791,
                0.9886981844902039
            ],
            "scale" : [
                1.0000001192092896,
                1.0000001192092896,
                1.0000001192092896
            ],
            "translation" : [
                1.897273023132584e-07,
                0.3971228003501892,
                -1.3783289176672042e-08
            ]
        },
        {
            "children" : [
                5
            ],
            "name" : "Patella",
            "rotation" : [
                0.059330400079488754,
                0.025953756645321846,
                -0.3009815514087677,
                0.9514286518096924
            ],
            "scale" : [
                1.000000238418579,
                1.0000001192092896,
                1.0000001192092896
            ],
            "translation" : [
                -8.935959527889281e-08,
                1.993216872215271,
                1.6664078117401004e-08
            ]
        },
        {
            "children" : [
                6
            ],
            "name" : "Femur",
            "rotation" : [
                -0.009052571840584278,
                0.025600967928767204,
                -0.9826012253761292,
                0.18373236060142517
            ],
            "scale" : [
                0.9999999403953552,
                1,
                0.9999998807907104
            ],
            "translation" : [
                0.16557596623897552,
                0.8893754482269287,
                -0.0015086239436641335
            ]
        },
        {
            "mesh" : 0,
            "name" : "Cube",
            "skin" : 0
        },
        {
            "children" : [
                8,
                7
            ],
            "name" : "Armature",
            "translation" : [
                0.4707910120487213,
                2.493250608444214,
                -0.0644344687461853
            ]
        }
    ],
    "animations" : [
        {
            "channels" : [
                {
                    "sampler" : 0,
                    "target" : {
                        "node" : 7,
                        "path" : "translation"
                    }
                },
                {
                    "sampler" : 1,
                    "target" : {
                        "node" : 7,
                        "path" : "rotation"
                    }
                },
                {
                    "sampler" : 2,
                    "target" : {
                        "node" : 6,
                        "path" : "translation"
                    }
                },
                {
                    "sampler" : 3,
                    "target" : {
                        "node" : 6,
                        "path" : "rotation"
                    }
                },
                {
                    "sampler" : 4,
                    "target" : {
                        "node" : 5,
                        "path" : "translation"
                    }
                },
                {
                    "sampler" : 5,
                    "target" : {
                        "node" : 5,
                        "path" : "rotation"
                    }
                },
                {
                    "sampler" : 6,
                    "target" : {
                        "node" : 4,
                        "path" : "translation"
                    }
                },
                {
                    "sampler" : 7,
                    "target" : {
                        "node" : 4,
                        "path" : "rotation"
                    }
                },
                {
                    "sampler" : 8,
                    "target" : {
                        "node" : 0,
                        "path" : "translation"
                    }
                },
                {
                    "sampler" : 9,
                    "target" : {
                        "node" : 0,
                        "path" : "rotation"
                    }
                },
                {
                    "sampler" : 10,
                    "target" : {
                        "node" : 1,
                        "path" : "translation"
                    }
                },
                {
                    "sampler" : 11,
                    "target" : {
                        "node" : 1,
                        "path" : "rotation"
                    }
                },
                {
                    "sampler" : 12,
                    "target" : {
                        "node" : 2,
                        "path" : "translation"
                    }
                },
                {
                    "sampler" : 13,
                    "target" : {
                        "node" : 2,
                        "path" : "rotation"
                    }
                },
                {
                    "sampler" : 14,
                    "target" : {
                        "node" : 3,
                        "path" : "translation"
                    }
                },
                {
                    "sampler" : 15,
                    "target" : {
                        "node" : 3,
                        "path" : "rotation"
                    }
                }
            ],
            "name" : "Armature.001Action",
            "samplers" : [
                {
                    "input" : 7,
                    "interpolation" : "LINEAR",
                    "output" : 8
                },
                {
                    "input" : 9,
                    "interpolation" : "LINEAR",
                    "output" : 10
                },
                {
                    "input" : 7,
                    "interpolation" : "LINEAR",
                    "output" : 11
                },
                {
                    "input" : 9,
                    "interpolation" : "LINEAR",
                    "output" : 12
                },
                {
                    "input" : 7,
                    "interpolation" : "LINEAR",
                    "output" : 13
                },
                {
                    "input" : 9,
                    "interpolation" : "LINEAR",
                    "output" : 14
                },
                {
                    "input" : 7,
                    "interpolation" : "LINEAR",
                    "output" : 15
                },
                {
                    "input" : 9,
                    "interpolation" : "LINEAR",
                    "output" : 16
                },
                {
                    "input" : 7,
                    "interpolation" : "LINEAR",
                    "output" : 17
                },
                {
                    "input" : 7,
                    "interpolation" : "LINEAR",
                    "output" : 18
                },
                {
                    "input" : 7,
                    "interpolation" : "LINEAR",
                    "output" : 19
                },
                {
                    "input" : 7,
                    "interpolation" : "LINEAR",
                    "output" : 20
                },
                {
                    "input" : 7,
                    "interpolation" : "LINEAR",
                    "output" : 21
                },
                {
                    "input" : 7,
                    "interpolation" : "LINEAR",
                    "output" : 22
                },
                {
                    "input" : 7,
                    "interpolation" : "LINEAR",
                    "output" : 23
                },
                {
                    "input" : 7,
                    "interpolation" : "LINEAR",
                    "output" : 24
                }
            ]
        }
    ],
    "materials" : [
        {
            "doubleSided" : true,
            "name" : "Material",
            "pbrMetallicRoughness" : {
                "baseColorTexture" : {
                    "index" : 0
                },
                "metallicFactor" : 0,
                "roughnessFactor" : 0.4000000059604645
            }
        }
    ],
    "meshes" : [
        {
            "name" : "Mesh",
            "primitives" : [
                {
                    "attributes" : {
                        "POSITION" : 0,
                        "NORMAL" : 1,
                        "TEXCOORD_0" : 2,
                        "JOINTS_0" : 3,
                        "WEIGHTS_0" : 4
                    },
                    "indices" : 5,
                    "material" : 0
                }
            ]
        }
    ],
    "textures" : [
        {
            "sampler" : 0,
            "source" : 0
        }
    ],
    "images" : [
        {
            "bufferView" : 6,
            "mimeType" : "image/png",
            "name" : "bone"
        }
    ],
    "skins" : [
        {
            "inverseBindMatrices" : 6,
            "joints" : [
                7,
                6,
                5,
                4,
                0,
                1,
                2,
                3
            ],
            "name" : "Armature"
        }
    ],
    "accessors" : [
        {
            "bufferView" : 0,
            "componentType" : 5126,
            "count" : 18560,
            "max" : [
                1.7167339324951172,
                3.559091567993164,
                0.24261698126792908
            ],
            "min" : [
                -0.00422181561589241,
                -1.8091282844543457,
                -0.3829921782016754
            ],
            "type" : "VEC3"
        },
        {
            "bufferView" : 1,
            "componentType" : 5126,
            "count" : 18560,
            "type" : "VEC3"
        },
        {
            "bufferView" : 2,
            "componentType" : 5126,
            "count" : 18560,
            "type" : "VEC2"
        },
        {
            "bufferView" : 3,
            "componentType" : 5121,
            "count" : 18560,
            "type" : "VEC4"
        },
        {
            "bufferView" : 4,
            "componentType" : 5126,
            "count" : 18560,
            "type" : "VEC4"
        },
        {
            "bufferView" : 5,
            "componentType" : 5123,
            "count" : 27840,
            "type" : "SCALAR"
        },
        {
            "bufferView" : 7,
            "componentType" : 5126,
            "count" : 8,
            "type" : "MAT4"
        },
        {
            "bufferView" : 8,
            "componentType" : 5126,
            "count" : 2,
            "max" : [
                1.6666666666666667
            ],
            "min" : [
                0.041666666666666664
            ],
            "type" : "SCALAR"
        },
        {
            "bufferView" : 9,
            "componentType" : 5126,
            "count" : 2,
            "type" : "VEC3"
        },
        {
            "bufferView" : 10,
            "componentType" : 5126,
            "count" : 40,
            "max" : [
                1.6666666666666667
            ],
            "min" : [
                0.041666666666666664
            ],
            "type" : "SCALAR"
        },
        {
            "bufferView" : 11,
            "componentType" : 5126,
            "count" : 40,
            "type" : "VEC4"
        },
        {
            "bufferView" : 12,
            "componentType" : 5126,
            "count" : 2,
            "type" : "VEC3"
        },
        {
            "bufferView" : 13,
            "componentType" : 5126,
            "count" : 40,
            "type" : "VEC4"
        },
        {
            "bufferView" : 14,
            "componentType" : 5126,
            "count" : 2,
            "type" : "VEC3"
        },
        {
            "bufferView" : 15,
            "componentType" : 5126,
            "count" : 40,
            "type" : "VEC4"
        },
        {
            "bufferView" : 16,
            "componentType" : 5126,
            "count" : 2,
            "type" : "VEC3"
        },
        {
            "bufferView" : 17,
            "componentType" : 5126,
            "count" : 40,
            "type" : "VEC4"
        },
        {
            "bufferView" : 18,
            "componentType" : 5126,
            "count" : 2,
            "type" : "VEC3"
        },
        {
            "bufferView" : 19,
            "componentType" : 5126,
            "count" : 2,
            "type" : "VEC4"
        },
        {
            "bufferView" : 20,
            "componentType" : 5126,
            "count" : 2,
            "type" : "VEC3"
        },
        {
            "bufferView" : 21,
            "componentType" : 5126,
            "count" : 2,
            "type" : "VEC4"
        },
        {
            "bufferView" : 22,
            "componentType" : 5126,
            "count" : 2,
            "type" : "VEC3"
        },
        {
            "bufferView" : 23,
            "componentType" : 5126,
            "count" : 2,
            "type" : "VEC4"
        },
        {
            "bufferView" : 24,
            "componentType" : 5126,
            "count" : 2,
            "type" : "VEC3"
        },
        {
            "bufferView" : 25,
            "componentType" : 5126,
            "count" : 2,
            "type" : "VEC4"
        }
    ],
    "bufferViews" : [
        {
            "buffer" : 0,
            "byteLength" : 222720,
            "byteOffset" : 0
        },
        {
            "buffer" : 0,
            "byteLength" : 222720,
            "byteOffset" : 222720
        },
        {
            "buffer" : 0,
            "byteLength" : 148480,
            "byteOffset" : 445440
        },
        {
            "buffer" : 0,
            "byteLength" : 74240,
            "byteOffset" : 593920
        },
        {
            "buffer" : 0,
            "byteLength" : 296960,
            "byteOffset" : 668160
        },
        {
            "buffer" : 0,
            "byteLength" : 55680,
            "byteOffset" : 965120
        },
        {
            "buffer" : 0,
            "byteLength" : 197304,
            "byteOffset" : 1020800
        },
        {
            "buffer" : 0,
            "byteLength" : 512,
            "byteOffset" : 1218104
        },
        {
            "buffer" : 0,
            "byteLength" : 8,
            "byteOffset" : 1218616
        },
        {
            "buffer" : 0,
            "byteLength" : 24,
            "byteOffset" : 1218624
        },
        {
            "buffer" : 0,
            "byteLength" : 160,
            "byteOffset" : 1218648
        },
        {
            "buffer" : 0,
            "byteLength" : 640,
            "byteOffset" : 1218808
        },
        {
            "buffer" : 0,
            "byteLength" : 24,
            "byteOffset" : 1219448
        },
        {
            "buffer" : 0,
            "byteLength" : 640,
            "byteOffset" : 1219472
        },
        {
            "buffer" : 0,
            "byteLength" : 24,
            "byteOffset" : 1220112
        },
        {
            "buffer" : 0,
            "byteLength" : 640,
            "byteOffset" : 1220136
        },
        {
            "buffer" : 0,
            "byteLength" : 24,
            "byteOffset" : 1220776
        },
        {
            "buffer" : 0,
            "byteLength" : 640,
            "byteOffset" : 1220800
        },
        {
            "buffer" : 0,
            "byteLength" : 24,
            "byteOffset" : 1221440
        },
        {
            "buffer" : 0,
            "byteLength" : 32,
            "byteOffset" : 1221464
        },
        {
            "buffer" : 0,
            "byteLength" : 24,
            "byteOffset" : 1221496
        },
        {
            "buffer" : 0,
            "byteLength" : 32,
            "byteOffset" : 1221520
        },
        {
            "buffer" : 0,
            "byteLength" : 24,
            "byteOffset" : 1221552
        },
        {
            "buffer" : 0,
            "byteLength" : 32,
            "byteOffset" : 1221576
        },
        {
            "buffer" : 0,
            "byteLength" : 24,
            "byteOffset" : 1221608
        },
        {
            "buffer" : 0,
            "byteLength" : 32,
            "byteOffset" : 1221632
        }
    ],
    "samplers" : [
        {
            "magFilter" : 9729,
            "minFilter" : 9987
        }
    ],
    "buffers" : [
        {
            "byteLength" : 1221664,
            "uri" : "data:application/octet-stream;base64,"
        }
    ]
}
